<svg xmlns="http://www.w3.org/2000/svg" viewBox="0 0 1024 1024" width="1024" height="1024"><g transform="translate(512,512) scale(0.498) rotate(-45) translate(-1200,-260)">
<rect x="492" y="218" width="34" height="84" rx="13" fill="#aab0b8"></rect>
<rect x="1874" y="218" width="34" height="84" rx="13" fill="#aab0b8"></rect>
<rect x="492" y="224" width="1416" height="72" rx="36" fill="#aab0b8"></rect>
<rect x="505" y="234" width="1390" height="8" rx="4" fill="#ffffff" opacity="0.6"></rect>
<ellipse cx="194" cy="260" rx="42" ry="94" fill="#ffffff" stroke="#aab0b8" stroke-width="9"></ellipse>
<path d="M492 224 C404 235 282 133 200 162 C174 206 168 242 168 260 C168 278 174 314 200 358 C282 387 404 285 492 296 Z" fill="#0d9488"></path>
<g transform="translate(2400,0) scale(-1,1)"><path d="M492 224 C404 235 282 133 200 162 C174 206 168 242 168 260 C168 278 174 314 200 358 C282 387 404 285 492 296 Z" fill="#0d9488"></path></g>
<ellipse cx="2206" cy="260" rx="42" ry="94" fill="#ffffff" stroke="#aab0b8" stroke-width="9"></ellipse></g></svg>